# xmcd CD database file
#
# Track frame offsets:
#	180
#	31682
#	46719
#	71147
#	97091
#	126949
#	156957
#	174019
#	196744
#	223220
#
# Disc length: 3239 seconds
#
# Revision: 0
# Processed by: cddbd v1.4PL0 Copyright (c) Steve Scherf et al.
# Submitted via: CDex 1.50beta10
#
DISCID=840ca50a
DTITLE=William Chabbey - Meeting with the cool
DYEAR=1996
DGENRE=Jazz
TTITLE0=Chanson pour l'africain
TTITLE1=Theme pour Gil
TTITLE2=Meeting with the cool
TTITLE3=Mister Brown
TTITLE4=Le père Francois
TTITLE5=Laurence
TTITLE6=Song for Bird
TTITLE7=Reflections a deux
TTITLE8=Le Blues a Williamù
TTITLE9=Nuages
EXTD=YEAR: 1996
EXTT0=
EXTT1=
EXTT2=
EXTT3=
EXTT4=
EXTT5=
EXTT6=
EXTT7=
EXTT8=
EXTT9=
PLAYORDER=
